<svg width="15" height="15" viewBox="0 0 15 15" fill="none" xmlns="http://www.w3.org/2000/svg">
<path fill-rule="evenodd" clip-rule="evenodd" d="M14.2662 4.45559C15.1272 5.31654 14.8677 6.77172 13.7622 7.28196L12.4347 7.89462C12.1047 8.04695 11.8042 8.25648 11.5471 8.51352C11.1439 8.91674 10.8605 9.42394 10.7284 9.97867L10.1441 12.4328C9.827 13.7647 8.17232 14.233 7.20425 13.2649L5 11.0607L1.2803 14.7803C0.987399 15.0732 0.512599 15.0732 0.219699 14.7803C-0.0732008 14.4874 -0.0732008 14.0126 0.219699 13.7197L3.9393 10L1.7351 7.79576C0.767 6.82768 1.2353 5.17302 2.5672 4.85591L5.02134 4.27158C5.57606 4.1395 6.08326 3.85608 6.48648 3.45286C6.74352 3.19582 6.95305 2.89533 7.10538 2.56527L7.71804 1.23784C8.22828 0.132338 9.68346 -0.127194 10.5444 0.733756L14.2662 4.45559ZM13.1336 5.92002C13.2915 5.84713 13.3286 5.63924 13.2056 5.51625L9.48375 1.79442C9.36076 1.67142 9.15287 1.7085 9.07998 1.86643L8.46732 3.19386C8.24083 3.68458 7.9293 4.13136 7.54714 4.51353C6.94763 5.11303 6.19354 5.53441 5.36877 5.73079L2.9146 6.31512C2.7243 6.36042 2.6574 6.5968 2.7957 6.7351L8.26491 12.2043C8.40321 12.3426 8.63959 12.2757 8.68489 12.0854L9.26921 9.63124C9.46559 8.80647 9.88698 8.05236 10.4865 7.45286C10.8686 7.07069 11.3154 6.75917 11.8061 6.53268L13.1336 5.92002Z" fill="#1465F2"/>
</svg>
