<svg width="48" height="48" viewBox="0 0 48 48" fill="none" xmlns="http://www.w3.org/2000/svg">
<path d="M6.21333 4.26667L6.73333 4.78667C7.25333 5.29333 7.25333 6.14667 6.73333 6.65333L6.72 6.66667C6.2 7.18667 5.37333 7.18667 4.85333 6.66667L4.33333 6.14667C3.81333 5.64 3.81333 4.8 4.33333 4.28L4.34667 4.26667C4.85333 3.76 5.69333 3.74667 6.21333 4.26667Z" fill="white"/>
<path d="M1.32 13.2667H2.68C3.41333 13.2667 4 13.8533 4 14.6V14.6133C4 15.3467 3.41333 15.9333 2.66667 15.92H1.32C0.586667 15.92 0 15.3333 0 14.6V14.5867C0 13.8533 0.586667 13.2667 1.32 13.2667Z" fill="white"/>
<path d="M14.6667 0H14.68C15.4133 0 16 0.586667 16 1.32V2.61333C16 3.34667 15.4133 3.93333 14.6667 3.92H14.6533C13.92 3.92 13.3333 3.33333 13.3333 2.6V1.32C13.3333 0.586667 13.92 0 14.6667 0Z" fill="white"/>
<path d="M23.12 4.26667C23.64 3.76 24.48 3.76 25 4.28C25.52 4.8 25.52 5.62667 25 6.14667L24.48 6.66667C23.9733 7.18667 23.1333 7.18667 22.6133 6.66667L22.6 6.65333C22.08 6.14667 22.08 5.30667 22.6 4.78667L23.12 4.26667Z" fill="white"/>
<path d="M6.66667 14.6C6.66667 10.1867 10.2533 6.6 14.6667 6.6C17.696 6.6 20.3358 8.28983 21.6936 10.7769C20.1455 12.1535 18.9887 13.9606 18.4111 16.0104C18.275 16.0035 18.1379 16 18 16C14.4962 16 11.5185 18.2525 10.436 21.3885C8.17366 19.9741 6.66667 17.4607 6.66667 14.6Z" fill="white"/>
<path d="M6.21333 24.92C5.69333 25.44 4.85333 25.44 4.33333 24.92C3.81333 24.4 3.81333 23.5733 4.32 23.04L4.84 22.52C5.36 22 6.2 22 6.72 22.52L6.73333 22.5333C7.24 23.04 7.25333 23.88 6.73333 24.4L6.21333 24.92Z" fill="white"/>
<path d="M40 38H14C10.6863 38 8 35.3137 8 32C8 29.3849 9.67298 27.1606 12.007 26.3389C12.0024 26.2265 12 26.1135 12 26C12 21.5817 15.5817 18 20 18C20.1379 18 20.275 18.0035 20.4111 18.0104C21.7136 13.3881 25.9611 10 31 10C37.0751 10 42 14.9249 42 21C42 21.4174 41.9768 21.8294 41.9315 22.2347C45.4166 23.0988 48 26.2477 48 30C48 34.4183 44.4183 38 40 38Z" fill="white"/>
<path d="M18.8292 40C19.8265 40 20.4752 41.0496 20.0292 41.9416L17.3708 47.2584C17.1436 47.7129 16.679 48 16.1708 48C15.1735 48 14.5248 46.9504 14.9708 46.0584L17.6292 40.7416C17.8564 40.2871 18.321 40 18.8292 40Z" fill="white"/>
<path d="M24.8292 40C25.8265 40 26.4752 41.0496 26.0292 41.9416L23.3708 47.2584C23.1436 47.7129 22.679 48 22.1708 48C21.1735 48 20.5248 46.9504 20.9708 46.0584L23.6292 40.7416C23.8564 40.2871 24.321 40 24.8292 40Z" fill="white"/>
<path d="M36.8292 40C36.321 40 35.8564 40.2871 35.6292 40.7416L32.9708 46.0584C32.5248 46.9504 33.1735 48 34.1708 48C34.679 48 35.1436 47.7129 35.3708 47.2584L38.0292 41.9416C38.4752 41.0496 37.8265 40 36.8292 40Z" fill="white"/>
<path d="M30.8292 40C31.8265 40 32.4752 41.0496 32.0292 41.9416L29.3708 47.2584C29.1436 47.7129 28.679 48 28.1708 48C27.1735 48 26.5248 46.9504 26.9708 46.0584L29.6292 40.7416C29.8564 40.2871 30.321 40 30.8292 40Z" fill="white"/>
</svg>
